<?xml version="1.0" ?><svg height="512" viewBox="0 0 512 512" width="512" xmlns="http://www.w3.org/2000/svg"><g><g><polygon fill="#00a8e7" points="130.054 367.357 170.268 367.357 180.321 387.464 200.429 387.464 210.482 397.518 200.429 417.625 150.161 467.893 150.161 488 130.053 477.946 120 457.839 140.107 417.625 130.054 397.518 130.054 367.357"/><polygon fill="#00a8e7" points="24 240 24 272 40 272 48 264 56 264 80 288 72 296 96 328 120 344 112 320 136 312 152 296 168 280 152 264 144 248 80 248 64 240 24 240"/><polygon fill="#00a8e7" points="184 248 168 240 168 224 160 216 136 216 88 216 128 192 168 192 184 184 216 184 224 200 216 208 224 224 216 232 184 248"/><polygon fill="#00a8e7" points="232 336 256 336 256 352 288 352 304 360 312 368 288 392 296 408 280 424 264 440 264 416 248 392 248 376 224 376 216 360 232 336"/><polygon fill="#00a8e7" points="488 256 432 232 408 232 384 216 352 216 328 224 296 248 272 240 248 264 248 280 232 288 232 312 256 312 264 296 280 296 296 312 312 312 328 328 344 344 360 328 368 336 368 360 392 376 384 352 400 328 424 312 440 280 464 272 488 256"/><polygon fill="#00a8e7" points="424 408 440 424 432 448 416 448 400 440 384 440 384 416 408 416 416 400 424 408"/><path d="M488,120a72,72,0,1,0-103.818,64.591L416,272l31.818-87.409A71.992,71.992,0,0,0,488,120Z" fill="#e22526"/><g><path d="M408.5,79.722V95.751a8,8,0,0,0,16,0V79.722A8,8,0,0,0,422.437,64H410.561A8,8,0,0,0,408.5,79.722Z" fill="#42a87e"/><path d="M424.5,159.281V143.252a8,8,0,1,0-16,0v16.029A8,8,0,0,0,410.561,175h11.876a8,8,0,0,0,2.062-15.722Z" fill="#42a87e"/><path d="M376.719,127.5h16.029a8,8,0,0,0,0-16H376.719A8,8,0,0,0,361,113.563v11.876a8,8,0,0,0,15.722,2.062Z" fill="#42a87e"/><path d="M464,105.563a8,8,0,0,0-7.722,5.938H440.249a8,8,0,0,0,0,16h16.029A8,8,0,0,0,472,125.439V113.563A8,8,0,0,0,464,105.563Z" fill="#42a87e"/><circle cx="416.499" cy="119.501" fill="#5ec09b" r="23.751"/><path d="M398.125,149.19l7.236-7.237a8,8,0,1,0-11.314-11.314l-7.237,7.236-.281-.28a8,8,0,1,0-11.314,11.314l11.876,11.876a8,8,0,0,0,11.314-11.314Z" fill="#37916a"/><path d="M380.872,103.751a7.974,7.974,0,0,0,5.657-2.343l.282-.281,7.236,7.236a8,8,0,1,0,11.314-11.312l-7.237-7.238.281-.281a8,8,0,0,0-11.314-11.314L375.215,90.094a8,8,0,0,0,5.657,13.657Z" fill="#37916a"/><path d="M434.873,89.813l-7.237,7.237a8,8,0,0,0,11.314,11.314l7.237-7.237.281.281a8,8,0,1,0,11.314-11.314l-5.928-5.928-.009-.011-.01-.009-5.929-5.928a8,8,0,0,0-11.314,11.314Z" fill="#37916a"/><path d="M446.468,137.6l-.281.281-7.238-7.237a8,8,0,0,0-11.312,11.314l7.236,7.236-.281.282a8,8,0,0,0,11.314,11.314l11.876-11.876A8,8,0,0,0,446.468,137.6Z" fill="#37916a"/></g><path d="M168,96A72,72,0,1,0,64.182,160.591L96,264l31.818-103.409A71.992,71.992,0,0,0,168,96Z" fill="#e22526"/><path d="M335.944,200a72,72,0,1,0-103.818,64.591L263.944,368l31.819-103.409A71.991,71.991,0,0,0,335.944,200Z" fill="#e22526"/><g><path d="M255.5,160.719v16.029a8,8,0,0,0,16,0V160.719A8,8,0,0,0,269.439,145H257.563a8,8,0,0,0-2.061,15.722Z" fill="#42a87e"/><path d="M271.5,240.278V224.249a8,8,0,1,0-16,0v16.029A8,8,0,0,0,257.563,256h11.876a8,8,0,0,0,2.063-15.722Z" fill="#42a87e"/><path d="M223.722,208.5h16.029a8,8,0,1,0,0-16H223.722A8,8,0,0,0,208,194.561v11.876a8,8,0,0,0,15.722,2.061Z" fill="#42a87e"/><path d="M311,186.561a8,8,0,0,0-7.722,5.937H287.252a8,8,0,0,0,0,16h16.029A8,8,0,0,0,319,206.437V194.561A8,8,0,0,0,311,186.561Z" fill="#42a87e"/><circle cx="263.502" cy="200.498" fill="#5ec09b" r="23.751"/><path d="M245.127,230.187l7.237-7.237a8,8,0,0,0-11.314-11.314l-7.237,7.237-.281-.281a8,8,0,0,0-11.314,11.314l11.876,11.876a8,8,0,0,0,11.314-11.314Z" fill="#37916a"/><path d="M227.875,184.748a7.974,7.974,0,0,0,5.657-2.343l.282-.281,7.236,7.236a8,8,0,1,0,11.314-11.312l-7.237-7.237.281-.282a8,8,0,0,0-11.314-11.314l-11.876,11.876a8,8,0,0,0,5.657,13.657Z" fill="#37916a"/><path d="M281.875,170.81l-7.236,7.237a8,8,0,0,0,11.314,11.314l7.237-7.236.281.28a8,8,0,1,0,11.314-11.314l-5.928-5.928-.009-.011-.01-.009-5.929-5.928A8,8,0,0,0,281.6,170.529Z" fill="#37916a"/><path d="M293.471,218.592l-.281.281-7.238-7.237A8,8,0,1,0,274.64,222.95l7.236,7.237-.281.281a8,8,0,0,0,11.314,11.314l11.876-11.876a8,8,0,1,0-11.314-11.314Z" fill="#37916a"/></g><g><path d="M88,56.22V72.25a8,8,0,0,0,16,0V56.22A8,8,0,0,0,101.938,40.5H90.062A8,8,0,0,0,88,56.22Z" fill="#42a87e"/><path d="M104,135.78V119.751a8,8,0,0,0-16,0V135.78A8,8,0,0,0,90.062,151.5h11.876A8,8,0,0,0,104,135.78Z" fill="#42a87e"/><path d="M56.22,104H72.249a8,8,0,0,0,0-16H56.22A8,8,0,0,0,40.5,90.062v11.876A8,8,0,0,0,56.22,104Z" fill="#42a87e"/><path d="M143.5,82.062A8,8,0,0,0,135.78,88H119.75a8,8,0,0,0,0,16h16.029a8,8,0,0,0,15.722-2.062V90.062A8,8,0,0,0,143.5,82.062Z" fill="#42a87e"/><circle cx="96" cy="96" fill="#5ec09b" r="23.751"/><path d="M77.626,125.689l7.237-7.237a8,8,0,0,0-11.315-11.315l-7.237,7.237-.28-.281a8,8,0,0,0-11.315,11.315l11.876,11.876a8,8,0,0,0,11.315-11.315Z" fill="#37916a"/><path d="M60.373,80.25a7.982,7.982,0,0,0,5.658-2.343l.281-.281,7.236,7.236A8,8,0,1,0,84.863,73.549l-7.237-7.237.281-.281A8,8,0,0,0,66.592,54.716L54.716,66.592A8,8,0,0,0,60.373,80.25Z" fill="#37916a"/><path d="M114.374,66.312l-7.237,7.236a8,8,0,0,0,11.315,11.315l7.236-7.237.281.281a8,8,0,0,0,11.315-11.315l-5.929-5.928-.009-.01-.01-.009-5.928-5.929a8,8,0,0,0-11.315,11.315Z" fill="#37916a"/><path d="M125.969,114.093l-.281.282-7.237-7.238a8,8,0,1,0-11.313,11.315l7.237,7.236-.282.281a8,8,0,0,0,11.315,11.315l11.876-11.876a8,8,0,0,0-11.315-11.315Z" fill="#37916a"/></g></g><path d="M206.086,381.808a8,8,0,0,0-5.657-2.344H185.266l-7.843-15.685a8,8,0,0,0-7.155-4.422H130.054a8,8,0,0,0-8,8v30.161a8,8,0,0,0,.844,3.577l8.265,16.53-18.318,36.636a7.993,7.993,0,0,0,0,7.155L122.9,481.523a8,8,0,0,0,3.578,3.579l20.107,10.053c5.07,2.731,11.755-1.39,11.578-7.155V471.206l47.924-47.924a7.955,7.955,0,0,0,1.5-2.08L217.637,401.1a8,8,0,0,0-1.5-9.234Zm-12.232,31.078L144.5,462.235a8,8,0,0,0-2.343,5.658v7.163l-6.145-3.073-7.072-14.144L147.262,421.2a8,8,0,0,0,0-7.155l-9.208-18.419V375.357h27.27l7.842,15.685a8,8,0,0,0,7.155,4.422h16.794l3.633,3.633Zm297.3-164.24L440.86,227.093l13.41-36.838C526.5,150.275,498.635,40.793,416,40c-82.643.8-110.493,110.288-38.269,150.255l6.465,17.759c-.9.141-35.166-.445-34.725.4l-6.205,2.069C352.981,112.821,219.3,84.262,187.627,176c-2.162.04-5.263-.286-7.205.845L166.111,184H128.986l5.5-17.86C206.479,126.021,178.51,16.781,96,16c-82.518.785-110.473,110.034-38.48,150.14l22.427,72.889-12.368-6.184A7.994,7.994,0,0,0,64,232H24a8,8,0,0,0-8,8v32a8,8,0,0,0,8,8H40a8,8,0,0,0,5.657-2.343L51.313,272h1.374l16,16-2.344,2.343A8,8,0,0,0,65.6,300.8l24,32c-.752.553,25.317,17.245,25.962,17.856a8,8,0,0,0,12.027-9.186l-5.47-16.41,16.411-5.47a8.018,8.018,0,0,0,3.127-1.933l32-32a8,8,0,0,0,0-11.314l-15.082-15.082-7.42-14.839A8,8,0,0,0,144,240H111.755l4.923-16h40.009L160,227.313V240a8,8,0,0,0,4.422,7.155l16,8a8,8,0,0,0,7.157,0l12.838-6.422a80.049,80.049,0,0,0,25.047,21.408l2.691,8.745-5.885,1.3a8,8,0,0,0-5.859,5.281l-8,24A8,8,0,0,0,216,320h24.805l2.462,8H232a8,8,0,0,0-6.656,3.562l-16,24a8,8,0,0,0-.5,8.016l8,16A8,8,0,0,0,224,384h16v8a8,8,0,0,0,1.344,4.438L256,418.422V440c-.094,7,8.746,10.695,13.657,5.657l32-32a8,8,0,0,0,1.5-9.235l-5.421-10.842,19.923-19.923a8,8,0,0,0,0-11.314c-1.484-1.3-8.345-8.871-10.079-9.5l-16-8A7.994,7.994,0,0,0,288,344h-8.3l8.7-28.284,1.941,1.941A8,8,0,0,0,296,320h12.686l29.657,29.657a8,8,0,0,0,11.314,0L360,339.313V360a8,8,0,0,0,3.562,6.656l24,16a8,8,0,0,0,12.027-9.186l-6.762-20.288,12.942-19.413,22.669-15.113a7.994,7.994,0,0,0,2.717-3.078l14.518-29.036c.959-.435,22.681-7.26,22.765-7.886l24-16C497.676,259.341,496.911,250.955,491.151,248.646ZM352,120c3.513-84.9,124.494-84.887,128,0a63.65,63.65,0,0,1-35.722,57.417,8,8,0,0,0-3.977,4.437L416,248.612l-24.3-66.758a8,8,0,0,0-3.977-4.437A63.65,63.65,0,0,1,352,120ZM67.722,153.417C7.419,123.047,28.508,32.753,96,32a64,64,0,0,1,28.277,121.417,8,8,0,0,0-4.106,4.821C115.263,174.181,100.7,221.538,96,236.8L71.828,158.238A8,8,0,0,0,67.722,153.417ZM139.056,256l5.789,11.578c.426,1.557,10.668,11.044,11.842,12.422l-25.008,25.008-22.209,7.4a8,8,0,0,0-5.059,10.12l.626,1.88-3.459-2.306L82.563,296.751l3.094-3.094a8,8,0,0,0,0-11.314l-24-24A8,8,0,0,0,56,256c-12.74,0-10.29-1.033-19.313,8H32V248H62.111l14.311,7.155A7.994,7.994,0,0,0,80,256h5.168l3.186,10.353a8,8,0,0,0,15.292,0L106.832,256ZM184,239.056l-8-4c-.079-17.273,1.68-12.451-10.343-24.713A8,8,0,0,0,160,208H121.6l1.069-3.474L130.215,200H168a7.994,7.994,0,0,0,3.578-.845l12.706-6.353a80.3,80.3,0,0,0,7.682,42.268Zm26.236-4.152a7.9,7.9,0,0,0-.9-1.421c-26.121-41.745,5.075-97.943,54.612-97.483,42.729-.548,74.441,43.106,60.985,83.537a8.013,8.013,0,0,0-.348,1.053,63.678,63.678,0,0,1-32.36,36.827,8,8,0,0,0-4.1,4.821c-.061.2-11.1,36.059-11.149,36.233L263.944,340.8l-2.183-7.1c0-.033-21.972-71.389-21.988-71.463a8,8,0,0,0-4.106-4.821A64.031,64.031,0,0,1,210.235,234.9ZM227.1,304l3.056-9.17,2.719-.6L235.882,304Zm59.011,56,13.15,6.575L300.686,368l-18.343,18.343a8,8,0,0,0-1.5,9.235l5.421,10.842L272,420.687c-.07-2.742.467-6.808-1.344-9.124L256,389.578V376a8,8,0,0,0-8-8H228.944l-3.713-7.425L236.281,344H248.19l8.108,26.353a8,8,0,0,0,15.293,0L274.776,360ZM376,355.719v-3.7a13.653,13.653,0,0,0,1.037,4.389Zm84.454-90.97L437.47,272.41a8,8,0,0,0-4.625,4.012l-15.05,30.1c-1.3,1.131-24.639,15.716-24.451,17.04l-16,24A8,8,0,0,0,376,351.98V336a8,8,0,0,0-2.343-5.657l-8-8a8,8,0,0,0-11.314,0L344,332.687l-26.343-26.344A8,8,0,0,0,312,304H299.313l-5.587-5.588,8.7-28.272A79.521,79.521,0,0,0,338.613,228.9L353.3,224h28.279l11.139,7.425,15.765,43.311c2.487,6.959,12.549,6.962,15.036,0l11.861-32.584,35.895,15.383Zm-38.8,129.594a8.054,8.054,0,0,0-12.812,2.079L403.056,408H384a8,8,0,0,0-8,8v24a8,8,0,0,0,8,8h14.111l14.311,7.155A7.994,7.994,0,0,0,416,456h16a8,8,0,0,0,7.589-5.47l8-24a8,8,0,0,0-1.932-8.187ZM426.234,440h-8.345l-14.311-7.155A7.994,7.994,0,0,0,400,432h-8v-8h16a8,8,0,0,0,7.155-4.422l3.036-6.073,12.656,12.656ZM392.083,163.9c7.251.05,10.794-9.124,5.322-13.992l2.429-2.43a31.791,31.791,0,0,0,8.222,3.423v9.25c-8.955,2.451-7.385,15.566,2.007,15.736h11.986c9.387-.168,10.964-13.285,2.007-15.736V150.9a31.785,31.785,0,0,0,8.221-3.423l2.43,2.43c-5.471,4.867-1.929,14.044,5.321,13.992a7.979,7.979,0,0,0,5.657-2.342l5.985-5.986c.024-.007,5.978-5.99,6-6,7.392-8-4.056-18.814-11.649-10.978l-2.43-2.43a31.791,31.791,0,0,0,3.423-8.222h9.25c2.452,8.955,15.567,7.385,15.736-2.007V113.951c-.168-9.387-13.284-10.964-15.736-2.007h-9.25a31.785,31.785,0,0,0-3.423-8.221l2.43-2.43c7.59,7.838,19.043-2.971,11.649-10.978l-5.989-5.989,0,0-5.991-5.991c-8.011-7.394-18.813,4.062-10.978,11.649l-2.43,2.43a31.8,31.8,0,0,0-8.221-3.423v-9.25c8.954-2.452,7.384-15.567-2.007-15.736H410.062c-9.386.168-10.964,13.285-2.006,15.736v9.25a31.791,31.791,0,0,0-8.222,3.423l-2.43-2.43c7.834-7.584-2.965-19.044-10.977-11.65L374.44,90.315c-7.393,8.008,4.06,18.815,11.65,10.978l2.43,2.43a31.8,31.8,0,0,0-3.423,8.221h-9.25c-2.451-8.954-15.566-7.384-15.736,2.007v11.987c.168,9.386,13.285,10.964,15.736,2.006h9.25a31.791,31.791,0,0,0,3.423,8.222l-2.43,2.43c-7.589-7.834-19.044,2.969-11.65,10.978l6,6,5.988,5.988A7.977,7.977,0,0,0,392.083,163.9Zm23.973-59.929a15.99,15.99,0,0,1,15.972,15.971c-.877,21.19-31.071,21.184-31.945,0A15.991,15.991,0,0,1,416.056,103.973ZM102.049,151.889c9.393-.171,10.96-13.286,2.007-15.736V126.9a31.785,31.785,0,0,0,8.221-3.423l2.43,2.43c-5.471,4.867-1.929,14.044,5.321,13.992a7.979,7.979,0,0,0,5.657-2.342l5.985-5.986c.024-.007,5.978-5.99,6-6,7.392-8-4.056-18.814-11.649-10.978l-2.43-2.43a31.791,31.791,0,0,0,3.423-8.222h9.25c2.452,8.955,15.567,7.385,15.736-2.007V89.951c-.168-9.387-13.284-10.964-15.736-2.007h-9.25a31.785,31.785,0,0,0-3.423-8.221l2.43-2.43c7.59,7.838,19.043-2.971,11.649-10.978l-5.989-5.989-.005-.005-5.991-5.991c-8.01-7.394-18.813,4.061-10.978,11.649l-2.43,2.43a31.8,31.8,0,0,0-8.221-3.423v-9.25c8.954-2.452,7.384-15.567-2.007-15.736H90.062c-9.386.168-10.964,13.285-2.006,15.736v9.25a31.791,31.791,0,0,0-8.222,3.423l-2.43-2.43c7.834-7.584-2.965-19.044-10.977-11.65L54.44,66.315C47.047,74.323,58.5,85.13,66.09,77.293l2.43,2.43A31.8,31.8,0,0,0,65.1,87.944h-9.25C53.4,78.99,40.281,80.56,40.111,89.951v11.987c.168,9.386,13.285,10.964,15.736,2.006H65.1a31.791,31.791,0,0,0,3.423,8.222l-2.43,2.43c-7.586-7.833-19.045,2.967-11.65,10.978l6,6,5.988,5.988a7.977,7.977,0,0,0,5.656,2.342c7.246.051,10.8-9.122,5.322-13.992l2.429-2.43a31.791,31.791,0,0,0,8.222,3.423v9.25c-8.958,2.454-7.381,15.567,2.007,15.736ZM80.083,95.944A15.991,15.991,0,0,1,96.056,79.973c21.189.877,21.182,31.07,0,31.944A15.991,15.991,0,0,1,80.083,95.944Zm159.889,148.07c7.251.05,10.793-9.124,5.321-13.993l2.43-2.429a31.785,31.785,0,0,0,8.221,3.423v9.249c-8.954,2.452-7.384,15.567,2.007,15.736h11.987c9.386-.168,10.964-13.285,2.006-15.736v-9.249a31.791,31.791,0,0,0,8.222-3.423l2.429,2.429c-5.471,4.867-1.928,14.045,5.322,13.993a7.978,7.978,0,0,0,5.656-2.343l5.988-5.988c.015-.006,5.985-5.99,6-6,7.392-8-4.058-18.815-11.65-10.978l-2.43-2.431a31.785,31.785,0,0,0,3.423-8.221h9.25c2.451,8.954,15.566,7.384,15.736-2.007V194.062c-.168-9.386-13.285-10.964-15.736-2.006H294.9a31.759,31.759,0,0,0-3.424-8.222l2.43-2.429c7.586,7.834,19.046-2.968,11.651-10.978L293.573,158.44c-8-7.39-18.814,4.058-10.978,11.651l-2.43,2.43a31.77,31.77,0,0,0-8.221-3.423v-9.251c8.955-2.451,7.385-15.566-2.007-15.736H257.951c-9.387.168-10.964,13.285-2.007,15.736V169.1a31.8,31.8,0,0,0-8.221,3.423l-2.43-2.43c7.834-7.585-2.965-19.045-10.978-11.651l-11.986,11.987c-7.393,8.007,4.06,18.814,11.65,10.978l2.43,2.429a31.791,31.791,0,0,0-3.423,8.222h-9.25c-2.452-8.955-15.567-7.385-15.736,2.007v11.986c.168,9.387,13.284,10.964,15.736,2.007h9.25a31.785,31.785,0,0,0,3.423,8.221l-2.43,2.431c-7.589-7.834-19.044,2.968-11.65,10.978l6,6,5.988,5.988A7.982,7.982,0,0,0,239.972,244.014Zm23.972-59.93a15.991,15.991,0,0,1,15.973,15.972c-.878,21.19-31.071,21.183-31.945,0A15.99,15.99,0,0,1,263.944,184.084Z"/></g></svg>